<svg width="20" height="20" viewBox="0 0 20 20" fill="none" xmlns="http://www.w3.org/2000/svg">
<path d="M4.99771 12.1376L3.63103 18.0556C3.58871 18.2348 3.60141 18.4226 3.66748 18.5945C3.73355 18.7663 3.84992 18.9143 4.00138 19.019C4.15284 19.1237 4.33236 19.1803 4.51648 19.1814C4.70061 19.1825 4.88078 19.128 5.03348 19.0251L10.0278 15.6956L15.0222 19.0251C15.1784 19.1289 15.3627 19.1823 15.5501 19.1781C15.7376 19.174 15.9194 19.1126 16.0709 19.0021C16.2225 18.8916 16.3365 18.7374 16.3978 18.5602C16.4591 18.3829 16.4646 18.1911 16.4136 18.0107L14.736 12.1404L18.8966 8.39622C19.0298 8.27623 19.125 8.11982 19.1703 7.94632C19.2156 7.77283 19.209 7.58986 19.1515 7.42004C19.0939 7.25023 18.9878 7.10101 18.8463 6.99085C18.7048 6.88069 18.5341 6.81442 18.3554 6.80023L13.1262 6.3838L10.8634 1.37479C10.7913 1.2135 10.674 1.07654 10.5257 0.980432C10.3774 0.884329 10.2045 0.833191 10.0278 0.833191C9.85112 0.833191 9.67821 0.884329 9.52993 0.980432C9.38166 1.07654 9.26437 1.2135 9.19222 1.37479L6.9294 6.3838L1.70025 6.79931C1.52456 6.81323 1.3566 6.87747 1.21646 6.98434C1.07632 7.09122 0.969942 7.23621 0.910047 7.40196C0.850152 7.56771 0.839277 7.74721 0.878725 7.91898C0.918172 8.09075 1.00627 8.24752 1.13248 8.37053L4.99771 12.1376ZM7.61458 8.16966C7.7783 8.15676 7.93553 8.10005 8.0698 8.00549C8.20407 7.91092 8.31042 7.78197 8.37771 7.63216L10.0278 3.98065L11.6779 7.63216C11.7452 7.78197 11.8516 7.91092 11.9858 8.00549C12.1201 8.10005 12.2773 8.15676 12.4411 8.16966L16.0843 8.45859L13.084 11.1589C12.8235 11.3937 12.7199 11.7551 12.8153 12.0927L13.9646 16.1147L10.5378 13.8299C10.3874 13.729 10.2103 13.6751 10.0292 13.6751C9.84805 13.6751 9.671 13.729 9.52059 13.8299L5.93971 16.2175L6.9028 12.0477C6.93811 11.8944 6.93338 11.7345 6.88904 11.5835C6.8447 11.4325 6.76226 11.2954 6.64965 11.1855L3.86309 8.46868L7.61458 8.16966Z" fill="#F3CD03"/>
</svg>
